<?xml version="1.0" encoding="utf-8"?>
<!-- Generator: Adobe Illustrator 23.0.1, SVG Export Plug-In . SVG Version: 6.00 Build 0)  -->
<svg version="1.1" id="Capa_1" xmlns="http://www.w3.org/2000/svg" xmlns:xlink="http://www.w3.org/1999/xlink" x="0px" y="0px"
	 viewBox="0 0 490.7 490.7" style="enable-background:new 0 0 490.7 490.7;" xml:space="preserve">
<style type="text/css">
	.st0{fill:#FFFFFF;}
</style>
<g>
	<g>
		<path class="st0" d="M437.3,42.7h-128c-5.9,0-10.7,4.8-10.7,10.7S303.4,64,309.3,64h128c5.9,0,10.7-4.8,10.7-10.7
			S443.2,42.7,437.3,42.7z"/>
	</g>
</g>
<g>
	<g>
		<path class="st0" d="M444.9,45.8L402.2,3.1c-4.2-4.2-10.9-4.2-15.1,0s-4.2,10.9,0,15.1l35.1,35.1l-35.1,35.1
			c-4.2,4.2-4.2,10.9,0,15.1c2.1,2.1,4.8,3.1,7.6,3.1s5.5-1,7.6-3.1l42.7-42.7C449,56.7,449,49.9,444.9,45.8z"/>
	</g>
</g>
<g>
	<g>
		<path class="st0" d="M160,42.7H32c-5.9,0-10.7,4.8-10.7,10.7S26.1,64,32,64h128c5.9,0,10.7-4.8,10.7-10.7S165.9,42.7,160,42.7z"/>
	</g>
</g>
<g>
	<g>
		<path class="st0" d="M47.1,53.3l35.1-35.1c4.2-4.2,4.2-10.9,0-15.1S71.3-1,67.1,3.1L24.4,45.8c-4.2,4.2-4.2,10.9,0,15.1l42.7,42.7
			c2.1,2.1,4.8,3.1,7.6,3.1s5.5-1,7.5-3.1c4.2-4.2,4.2-10.9,0-15.1L47.1,53.3z"/>
	</g>
</g>
<g>
	<g>
		<path class="st0" d="M426.7,213.3c-8.8,0-16.9,2.7-23.7,7.2c-5.8-16.6-21.7-28.5-40.3-28.5c-8.8,0-16.9,2.7-23.7,7.2
			c-5.8-16.6-21.7-28.5-40.3-28.5c-7.8,0-15.1,2.1-21.3,5.7v-69.7c0-23.5-19.1-42.7-42.7-42.7S192,83.1,192,106.7V288l-37.1-27.8
			c-22-16.5-53.2-14.3-72.7,5.2c-12.5,12.5-12.5,32.8,0,45.2l151.9,151.9c18.1,18.1,42.3,28.1,67.9,28.1h50
			c64.7,0,117.3-52.6,117.3-117.3V256C469.3,232.5,450.2,213.3,426.7,213.3z M448,373.3c0,52.9-43.1,96-96,96h-50
			c-20,0-38.7-7.8-52.8-21.9L97.3,295.5c-4.2-4.2-4.2-10.9,0-15.1c6.6-6.6,15.4-10,24.3-10c7.2,0,14.5,2.2,20.5,6.8l54.1,40.6
			c3.2,2.4,7.6,2.8,11.2,1c3.6-1.8,5.9-5.5,5.9-9.5V106.7c0-11.8,9.6-21.3,21.3-21.3s21.3,9.6,21.3,21.3v160
			c0,5.9,4.8,10.7,10.7,10.7s10.7-4.8,10.7-10.7v-53.3c0-11.8,9.6-21.3,21.3-21.3s21.3,9.6,21.3,21.3v53.3c0,5.9,4.8,10.7,10.7,10.7
			s10.7-4.8,10.7-10.7v-32c0-11.8,9.6-21.3,21.3-21.3s21.3,9.6,21.3,21.3v32c0,5.9,4.8,10.7,10.7,10.7s10.7-4.8,10.7-10.7V256
			c0-11.8,9.6-21.3,21.3-21.3S448,244.2,448,256L448,373.3L448,373.3z"/>
	</g>
</g>
</svg>
